<svg xmlns="http://www.w3.org/2000/svg" width="129" height="28" fill="none"><path fill="#fff" d="M38.777 23V6.68h3.312V23h-3.312ZM45.645 23V6.68h5.591l3.937 13.44h.24V6.68h3.312V23h-5.449l-4.08-13.44h-.24V23h-3.312ZM67.301 9.272c-1.744 0-2.616.576-2.616 1.728 0 .512.216.904.648 1.176.432.272 1.44.664 3.024 1.176 1.6.512 2.72 1.096 3.36 1.752.64.64.96 1.632.96 2.976 0 1.712-.52 3.008-1.56 3.888-1.04.88-2.4 1.32-4.08 1.32-1.248 0-2.776-.192-4.584-.576l-.864-.168.336-2.568c2.144.288 3.784.432 4.92.432 1.696 0 2.544-.704 2.544-2.112 0-.512-.2-.912-.6-1.2-.384-.288-1.16-.6-2.328-.936-1.856-.528-3.168-1.152-3.936-1.872-.752-.736-1.128-1.752-1.128-3.048 0-1.632.496-2.848 1.488-3.648.992-.8 2.352-1.2 4.08-1.2 1.184 0 2.688.16 4.512.48l.864.168-.264 2.616c-2.256-.256-3.848-.384-4.776-.384ZM73.876 9.608V6.68h12v2.928h-4.32V23h-3.312V9.608h-4.368ZM91.216 19.16c.48.832 1.368 1.248 2.664 1.248s2.176-.416 2.64-1.248c.48-.848.72-2.256.72-4.224 0-1.984-.24-3.424-.72-4.32-.48-.896-1.36-1.344-2.64-1.344s-2.16.448-2.64 1.344c-.48.896-.72 2.336-.72 4.32 0 1.968.232 3.376.696 4.224Zm7.896 2.112c-1.008 1.344-2.752 2.016-5.232 2.016-2.48 0-4.232-.672-5.256-2.016-1.008-1.36-1.512-3.48-1.512-6.36 0-2.88.504-5.016 1.512-6.408 1.024-1.408 2.776-2.112 5.256-2.112 2.48 0 4.224.704 5.232 2.112 1.024 1.392 1.536 3.528 1.536 6.408 0 2.88-.512 5-1.536 6.36ZM113.832 22.736c-1.696.368-3.224.552-4.584.552-1.36 0-2.448-.168-3.264-.504a4.025 4.025 0 0 1-1.92-1.608c-.464-.736-.784-1.6-.96-2.592-.176-.992-.264-2.24-.264-3.744 0-3.152.44-5.344 1.32-6.576.896-1.248 2.536-1.872 4.92-1.872 1.376 0 2.968.216 4.776.648l-.096 2.64c-1.584-.24-2.904-.36-3.96-.36-1.04 0-1.784.144-2.232.432-.448.272-.784.8-1.008 1.584-.208.784-.312 2.12-.312 4.008s.216 3.2.648 3.936c.448.72 1.328 1.08 2.64 1.08a28.43 28.43 0 0 0 4.224-.336l.072 2.712ZM119.832 23h-3.312V6.68h3.312v7.176l2.208-.24 2.688-6.936h3.768l-3.552 8.184L128.592 23h-3.816l-2.736-6.504-2.208.24V23Z"/><path fill="#2E66E6" d="M5.6 7h14v4.2l5.6-5.6L19.6 0v4.2H2.8v8.4h2.8V7Zm14 14h-14v-4.2L0 22.4 5.6 28v-4.2h16.8v-8.4h-2.8V21Z"/></svg>